<?xml version="1.0" encoding="UTF-8"?>
<svg xmlns="http://www.w3.org/2000/svg" viewBox="0 0 100 100" width="100" height="100">
  <defs>
    <radialGradient id="likeGrad">
      <stop offset="0%" style="stop-color:#5890ff;stop-opacity:1" />
      <stop offset="100%" style="stop-color:#1877f2;stop-opacity:1" />
    </radialGradient>
  </defs>
  <circle cx="50" cy="50" r="48" fill="url(#likeGrad)"/>
  <path d="M 30 55 L 30 72 C 30 73 31 74 32 74 L 40 74 C 41 74 42 73 42 72 L 42 55 C 42 54 41 53 40 53 L 32 53 C 31 53 30 54 30 55 Z M 62 45 C 62 42 60 40 57 40 L 48 40 L 49 32 C 49 31 49 30 48 29 C 47 28 46 27 45 27 C 44 27 43 28 43 29 L 40 40 L 40 52 C 40 53 41 54 42 54 L 56 54 C 58 54 60 52 60 50 L 63 47 C 63 46 62 45 62 45 Z" fill="#ffffff"/>
</svg>